<svg xmlns="http://www.w3.org/2000/svg" version="1.1" xmlns:xlink="http://www.w3.org/1999/xlink" width="200" height="200"><svg xmlns="http://www.w3.org/2000/svg" version="1.1" xmlns:xlink="http://www.w3.org/1999/xlink" viewBox="0 0 200 200"><rect width="200" height="200" fill="url('#gradient')"></rect><defs><linearGradient id="SvgjsLinearGradient1001" gradientTransform="rotate(45 0.5 0.5)"><stop offset="0%" stop-color="#ffffff"></stop><stop offset="100%" stop-color="#ffffff"></stop></linearGradient></defs><g><g fill="#2c3448" transform="matrix(2.5116981132075473,0,0,2.5116981132075473,20.42971743412737,118.58890921106878)" stroke="#27354b" stroke-width="0.2"><path d="M8.41-3.78L8.41-3.78Q8.41-4.53 7.88-4.95Q7.34-5.37 6.01-5.82Q4.67-6.27 3.82-6.69L3.82-6.69Q1.05-8.05 1.05-10.42L1.05-10.42Q1.05-11.60 1.74-12.50Q2.43-13.41 3.69-13.91Q4.95-14.41 6.52-14.41L6.52-14.41Q8.06-14.41 9.27-13.87Q10.49-13.32 11.16-12.31Q11.84-11.30 11.84-10L11.84-10L8.42-10Q8.42-10.87 7.89-11.35Q7.35-11.83 6.45-11.83L6.45-11.83Q5.53-11.83 5.00-11.42Q4.46-11.02 4.46-10.39L4.46-10.39Q4.46-9.84 5.05-9.40Q5.63-8.96 7.11-8.48Q8.58-8.01 9.53-7.46L9.53-7.46Q11.84-6.13 11.84-3.80L11.84-3.80Q11.84-1.93 10.43-0.87Q9.02 0.20 6.57 0.20L6.57 0.20Q4.84 0.20 3.44-0.42Q2.04-1.04 1.33-2.12Q0.63-3.20 0.63-4.61L0.63-4.61L4.06-4.61Q4.06-3.47 4.65-2.92Q5.24-2.38 6.57-2.38L6.57-2.38Q7.42-2.38 7.92-2.75Q8.41-3.12 8.41-3.78ZM18.55 0.20L18.55 0.20Q16.12 0.20 14.62-1.25Q13.12-2.71 13.12-5.03L13.12-5.03L13.12-5.30Q13.12-6.92 13.72-8.16Q14.32-9.40 15.47-10.08Q16.62-10.76 18.20-10.76L18.20-10.76Q20.43-10.76 21.72-9.38Q23.01-8.00 23.01-5.53L23.01-5.53L23.01-4.25L16.46-4.25Q16.64-3.36 17.24-2.85Q17.83-2.34 18.78-2.34L18.78-2.34Q20.34-2.34 21.22-3.44L21.22-3.44L22.72-1.66Q22.11-0.81 20.98-0.31Q19.85 0.20 18.55 0.20ZM18.18-8.22L18.18-8.22Q16.74-8.22 16.46-6.31L16.46-6.31L19.79-6.31L19.79-6.56Q19.80-7.35 19.38-7.79Q18.96-8.22 18.18-8.22ZM24.27-10.57L27.35-10.57L27.46-9.33Q28.55-10.76 30.48-10.76L30.48-10.76Q32.13-10.76 32.94-9.78Q33.76-8.79 33.79-6.81L33.79-6.81L33.79 0L30.49 0L30.49-6.67Q30.49-7.47 30.17-7.85Q29.84-8.22 28.99-8.22L28.99-8.22Q28.03-8.22 27.56-7.46L27.56-7.46L27.56 0L24.27 0L24.27-10.57ZM36.15-13.19L39.44-13.19L39.44-10.57L41.18-10.57L41.18-8.28L39.44-8.28L39.44-3.45Q39.44-2.85 39.66-2.62Q39.87-2.38 40.51-2.38L40.51-2.38Q41.00-2.38 41.33-2.44L41.33-2.44L41.33-0.09Q40.44 0.20 39.47 0.20L39.47 0.20Q37.77 0.20 36.96-0.61Q36.15-1.41 36.15-3.04L36.15-3.04L36.15-8.28L34.80-8.28L34.80-10.57L36.15-10.57L36.15-13.19ZM45.69-15L45.69-9.43Q46.75-10.76 48.39-10.76L48.39-10.76Q50.14-10.76 51.03-9.73Q51.91-8.69 51.93-6.67L51.93-6.67L51.93 0L48.63 0L48.63-6.59Q48.63-7.43 48.29-7.83Q47.95-8.22 47.13-8.22L47.13-8.22Q46.11-8.22 45.69-7.58L45.69-7.58L45.69 0L42.40 0L42.40-15L45.69-15ZM57.24-10.57L57.24 0L53.94 0L53.94-10.57L57.24-10.57ZM53.74-13.29L53.74-13.29Q53.74-13.99 54.25-14.44Q54.76-14.89 55.57-14.89Q56.38-14.89 56.88-14.44Q57.39-13.99 57.39-13.29Q57.39-12.59 56.88-12.14Q56.38-11.69 55.57-11.69Q54.76-11.69 54.25-12.14Q53.74-12.59 53.74-13.29ZM62.73-15L62.73 0L59.43 0L59.43-15L62.73-15Z"></path></g></g></svg><style>@media (prefers-color-scheme: light) { :root { filter: none; } }
@media (prefers-color-scheme: dark) { :root { filter: none; } }
</style></svg>